<svg
  xmlns="http://www.w3.org/2000/svg"
  width="44"
  height="44"
  viewBox="0 0 1080 1080"
  fill="none"
  role="img"
  aria-hidden="true"
>
  <g clip-path="url(#clip0_11_39)">
    <path
      d="M456.84 135H396.36C377.273 135 361.8 150.473 361.8 169.56V230.04C361.8 249.127 377.273 264.6 396.36 264.6H456.84C475.927 264.6 491.4 249.127 491.4 230.04V169.56C491.4 150.473 475.927 135 456.84 135Z"
      fill="url(#paint0_linear_11_39)"
    />
    <path
      d="M683.64 135H623.16C604.073 135 588.6 150.473 588.6 169.56V230.04C588.6 249.127 604.073 264.6 623.16 264.6H683.64C702.727 264.6 718.2 249.127 718.2 230.04V169.56C718.2 150.473 702.727 135 683.64 135Z"
      fill="url(#paint1_linear_11_39)"
    />
    <path
      d="M230.04 361.8H169.56C150.473 361.8 135 377.273 135 396.36V456.84C135 475.927 150.473 491.4 169.56 491.4H230.04C249.127 491.4 264.6 475.927 264.6 456.84V396.36C264.6 377.273 249.127 361.8 230.04 361.8Z"
      fill="url(#paint2_linear_11_39)"
    />
    <path
      d="M910.44 361.8H849.96C830.873 361.8 815.4 377.273 815.4 396.36V456.84C815.4 475.927 830.873 491.4 849.96 491.4H910.44C929.527 491.4 945 475.927 945 456.84V396.36C945 377.273 929.527 361.8 910.44 361.8Z"
      fill="url(#paint3_linear_11_39)"
    />
    <path
      d="M230.04 588.6H169.56C150.473 588.6 135 604.073 135 623.16V683.64C135 702.727 150.473 718.2 169.56 718.2H230.04C249.127 718.2 264.6 702.727 264.6 683.64V623.16C264.6 604.073 249.127 588.6 230.04 588.6Z"
      fill="url(#paint4_linear_11_39)"
    />
    <path
      d="M910.44 588.6H849.96C830.873 588.6 815.4 604.073 815.4 623.16V683.64C815.4 702.727 830.873 718.2 849.96 718.2H910.44C929.527 718.2 945 702.727 945 683.64V623.16C945 604.073 929.527 588.6 910.44 588.6Z"
      fill="url(#paint5_linear_11_39)"
    />
    <path
      d="M456.84 815.4H396.36C377.273 815.4 361.8 830.873 361.8 849.96V910.44C361.8 929.527 377.273 945 396.36 945H456.84C475.927 945 491.4 929.527 491.4 910.44V849.96C491.4 830.873 475.927 815.4 456.84 815.4Z"
      fill="url(#paint6_linear_11_39)"
    />
    <path
      d="M683.64 815.4H623.16C604.073 815.4 588.6 830.873 588.6 849.96V910.44C588.6 929.527 604.073 945 623.16 945H683.64C702.727 945 718.2 929.527 718.2 910.44V849.96C718.2 830.873 702.727 815.4 683.64 815.4Z"
      fill="url(#paint7_linear_11_39)"
    />
    <path
      d="M837 540C725.544 541.296 644.976 559.224 591.624 591.624C559.224 644.976 541.296 725.544 540 837C538.704 725.544 520.776 644.976 488.376 591.624C435.024 559.224 354.456 541.296 243 540C354.456 538.704 435.024 520.776 488.376 488.376C520.776 435.024 538.704 354.456 540 243C541.296 354.456 559.224 435.024 591.624 488.376C644.976 520.776 725.544 538.704 837 540Z"
      fill="url(#paint8_linear_11_39)"
    />
  </g>

  <defs>
    <linearGradient
      id="paint0_linear_11_39"
      x1="1.46901e-05"
      y1="-9.37531e-06"
      x2="1080"
      y2="-9.37531e-06"
      gradientUnits="userSpaceOnUse"
    >
      <stop stop-color="#4FACFE" />
      <stop offset="1" stop-color="#BC29FF" />
    </linearGradient>
    <linearGradient
      id="paint1_linear_11_39"
      x1="3.87554e-05"
      y1="-9.37531e-06"
      x2="1080"
      y2="-9.37531e-06"
      gradientUnits="userSpaceOnUse"
    >
      <stop stop-color="#4FACFE" />
      <stop offset="1" stop-color="#BC29FF" />
    </linearGradient>
    <linearGradient
      id="paint2_linear_11_39"
      x1="-9.37531e-06"
      y1="-0.000197264"
      x2="1080"
      y2="-0.000197264"
      gradientUnits="userSpaceOnUse"
    >
      <stop stop-color="#4FACFE" />
      <stop offset="1" stop-color="#BC29FF" />
    </linearGradient>
    <linearGradient
      id="paint3_linear_11_39"
      x1="-0.000149133"
      y1="-0.000197264"
      x2="1080"
      y2="-0.000197264"
      gradientUnits="userSpaceOnUse"
    >
      <stop stop-color="#4FACFE" />
      <stop offset="1" stop-color="#BC29FF" />
    </linearGradient>
    <linearGradient
      id="paint4_linear_11_39"
      x1="-9.37531e-06"
      y1="0.000103128"
      x2="1080"
      y2="0.000103128"
      gradientUnits="userSpaceOnUse"
    >
      <stop stop-color="#4FACFE" />
      <stop offset="1" stop-color="#BC29FF" />
    </linearGradient>
    <linearGradient
      id="paint5_linear_11_39"
      x1="-0.000149133"
      y1="0.000103128"
      x2="1080"
      y2="0.000103128"
      gradientUnits="userSpaceOnUse"
    >
      <stop stop-color="#4FACFE" />
      <stop offset="1" stop-color="#BC29FF" />
    </linearGradient>
    <linearGradient
      id="paint6_linear_11_39"
      x1="1.46901e-05"
      y1="-0.000149133"
      x2="1080"
      y2="-0.000149133"
      gradientUnits="userSpaceOnUse"
    >
      <stop stop-color="#4FACFE" />
      <stop offset="1" stop-color="#BC29FF" />
    </linearGradient>
    <linearGradient
      id="paint7_linear_11_39"
      x1="3.87554e-05"
      y1="-0.000149133"
      x2="1080"
      y2="-0.000149133"
      gradientUnits="userSpaceOnUse"
    >
      <stop stop-color="#4FACFE" />
      <stop offset="1" stop-color="#BC29FF" />
    </linearGradient>
    <linearGradient
      id="paint8_linear_11_39"
      x1="1.17042e-05"
      y1="-2.04823e-05"
      x2="1080"
      y2="-2.04823e-05"
      gradientUnits="userSpaceOnUse"
    >
      <stop stop-color="#4FACFE" />
      <stop offset="1" stop-color="#BC29FF" />
    </linearGradient>

    <clipPath id="clip0_11_39">
      <rect width="1080" height="1080" fill="white" />
    </clipPath>
  </defs>
</svg>

